<?xml version="1.0" standalone="no"?>
<!DOCTYPE svg PUBLIC "-//W3C//DTD SVG 20010904//EN"
 "http://www.w3.org/TR/2001/REC-SVG-20010904/DTD/svg10.dtd">
<svg version="1.0" xmlns="http://www.w3.org/2000/svg"
 width="1920.000000pt" height="1080.000000pt" viewBox="0 0 1920.000000 1080.000000"
 preserveAspectRatio="xMidYMid meet">
<metadata>
Created by potrace 1.16, written by Peter Selinger 2001-2019
</metadata>
<g transform="translate(0.000000,1080.000000) scale(0.100000,-0.100000)"
fill="#000000" stroke="none">
<path d="M0 5400 l0 -5400 9600 0 9600 0 0 5400 0 5400 -9600 0 -9600 0 0
-5400z m9905 3365 c352 -53 656 -178 956 -391 103 -73 356 -322 431 -424 118
-161 199 -300 263 -453 l42 -99 100 -42 c930 -396 1452 -1393 1248 -2388 -39
-193 -91 -341 -184 -525 -228 -456 -615 -815 -1085 -1009 l-78 -32 -32 -78
c-268 -649 -847 -1128 -1534 -1269 -994 -204 -1993 318 -2388 1248 l-42 100
-99 42 c-256 108 -455 245 -673 464 -368 370 -569 813 -611 1344 -36 448 93
939 346 1317 252 378 583 643 1022 820 12 5 26 25 33 47 22 66 116 254 173
345 118 187 283 376 449 514 319 267 744 443 1164 483 126 12 370 5 499 -14z"/>
<path d="M9350 8503 c-558 -72 -1063 -411 -1357 -911 -30 -51 -53 -95 -51 -98
3 -2 27 0 54 5 28 5 116 15 196 21 401 31 849 -69 1190 -265 42 -25 80 -45 83
-45 8 0 6 1298 -2 1303 -5 2 -55 -2 -113 -10z"/>
<path d="M9735 8512 c-7 -7 -6 -449 2 -909 l6 -390 141 73 c229 117 438 185
686 221 153 22 447 22 589 -1 57 -9 106 -14 108 -13 2 2 -27 54 -64 116 -300
502 -811 832 -1391 899 -40 5 -74 6 -77 4z"/>
<path d="M8145 7249 c-94 -10 -315 -56 -327 -67 -15 -16 -58 -249 -70 -379
-21 -246 14 -514 99 -757 47 -135 81 -209 155 -332 l61 -104 71 68 c190 180
429 334 670 433 54 22 61 28 80 74 103 250 257 490 438 680 l66 71 -56 36
c-203 129 -457 225 -702 264 -122 19 -369 26 -485 13z"/>
<path d="M10670 7250 c-255 -28 -513 -113 -740 -242 -129 -74 -127 -62 -24
-171 153 -161 299 -386 389 -597 l44 -104 93 -41 c257 -114 454 -244 635 -418
l72 -69 34 53 c193 304 289 637 289 999 0 165 -25 366 -59 470 l-18 55 -70 18
c-183 46 -465 66 -645 47z"/>
<path d="M7396 7000 c-137 -83 -235 -158 -345 -264 -255 -248 -424 -534 -511
-868 -28 -108 -61 -315 -53 -330 5 -9 1303 -11 1303 -3 0 3 -20 41 -45 83
-146 254 -240 571 -265 892 -13 162 0 422 27 528 3 12 1 22 -3 22 -5 0 -54
-27 -108 -60z"/>
<path d="M11690 7053 c0 -5 5 -26 10 -48 5 -22 14 -110 20 -195 29 -405 -59
-814 -251 -1163 -32 -59 -59 -110 -59 -112 0 -3 295 -5 655 -5 517 0 655 3
655 13 -1 43 -33 232 -55 319 -71 276 -216 550 -413 773 -126 143 -264 256
-441 363 -102 61 -121 70 -121 55z"/>
<path d="M9529 6693 c-121 -125 -239 -284 -304 -412 l-27 -54 29 6 c153 30
569 35 706 7 33 -6 61 -9 64 -6 8 8 -78 155 -146 250 -53 75 -235 276 -250
276 -3 0 -36 -30 -72 -67z"/>
<path d="M9423 5990 c-89 -9 -218 -32 -297 -53 l-50 -13 -18 -70 c-71 -280
-71 -627 -1 -909 l18 -70 85 -22 c147 -39 325 -56 505 -50 167 6 233 15 377
48 l87 20 20 87 c33 144 42 210 48 377 6 180 -11 358 -50 505 l-22 85 -70 18
c-180 45 -458 65 -632 47z m263 -429 c74 -34 119 -132 96 -210 -24 -79 -103
-141 -182 -141 -73 0 -154 60 -175 129 -12 38 -7 108 9 138 18 36 64 79 96 92
40 16 112 12 156 -8z"/>
<path d="M8672 5747 c-127 -73 -239 -157 -346 -259 l-91 -88 101 -97 c55 -54
136 -123 180 -154 90 -64 242 -154 249 -147 2 2 -2 53 -10 114 -8 60 -15 188
-15 284 0 96 7 224 15 284 8 61 13 111 12 113 -2 1 -44 -21 -95 -50z"/>
<path d="M10434 5783 c16 -53 30 -229 30 -383 0 -154 -14 -330 -30 -382 -9
-29 13 -21 124 45 116 69 278 195 362 282 l55 57 -80 75 c-44 41 -116 102
-160 136 -79 61 -279 187 -297 187 -5 0 -7 -8 -4 -17z"/>
<path d="M6489 5263 c-8 -66 35 -294 84 -444 68 -207 165 -389 305 -574 63
-82 241 -258 333 -328 74 -56 290 -190 296 -183 2 1 -4 50 -13 107 -23 142
-23 436 -1 589 36 248 104 457 221 686 l73 141 -435 6 c-571 9 -862 9 -863 0z"/>
<path d="M11410 5265 c0 -5 19 -42 43 -84 200 -351 297 -785 267 -1195 -6 -83
-16 -172 -21 -199 -6 -26 -9 -50 -7 -53 8 -8 184 99 278 169 401 297 663 739
735 1235 9 63 15 115 13 117 -7 7 -1308 16 -1308 10z"/>
<path d="M11074 5129 c-136 -139 -339 -281 -549 -384 -71 -35 -143 -67 -158
-71 -16 -3 -31 -14 -34 -23 -22 -66 -106 -237 -157 -324 -90 -152 -169 -257
-274 -368 l-93 -98 57 -36 c209 -134 471 -231 734 -271 154 -23 394 -21 550 5
120 20 227 45 237 54 9 10 34 117 54 237 15 91 21 169 21 285 0 287 -54 530
-177 800 -29 64 -132 242 -144 250 -4 2 -34 -23 -67 -56z"/>
<path d="M8023 5123 c-56 -89 -158 -307 -191 -413 -105 -332 -118 -650 -40
-1001 l21 -97 76 -20 c210 -57 501 -70 736 -33 257 40 494 129 714 268 l53 34
-69 72 c-174 181 -304 378 -418 635 l-41 93 -104 44 c-210 90 -436 236 -595
387 -51 49 -96 88 -99 88 -3 0 -23 -26 -43 -57z"/>
<path d="M9200 4564 c0 -3 23 -47 51 -97 66 -114 175 -259 273 -362 l76 -80
83 86 c100 103 189 220 263 346 58 97 64 118 37 109 -53 -16 -229 -30 -383
-30 -154 0 -330 14 -382 30 -10 3 -18 2 -18 -2z"/>
<path d="M9351 3530 c-335 -188 -760 -280 -1163 -250 -84 6 -173 15 -197 21
-24 5 -46 7 -49 5 -7 -8 81 -157 147 -250 296 -414 749 -689 1254 -761 56 -8
108 -15 115 -15 9 0 12 138 12 655 0 360 -3 655 -7 654 -5 0 -55 -27 -112 -59z"/>
<path d="M9735 2938 c4 -359 9 -655 10 -656 5 -6 224 28 290 44 179 45 392
133 540 224 187 115 389 300 522 480 70 94 177 270 169 278 -3 2 -27 -1 -53
-7 -27 -5 -116 -15 -199 -21 -409 -30 -845 67 -1195 267 -42 24 -79 43 -84 43
-4 0 -4 -294 0 -652z"/>
</g>
</svg>
